<svg width="50" height="50" viewBox="0 0 50 50" fill="none" xmlns="http://www.w3.org/2000/svg">
<path fill-rule="evenodd" clip-rule="evenodd" d="M45.3576 12.1598C45.0925 12.1598 44.8776 12.3747 44.8776 12.6398C44.8776 12.9049 45.0925 13.1198 45.3576 13.1198C45.6227 13.1198 45.8376 12.9049 45.8376 12.6398C45.8376 12.3747 45.6227 12.1598 45.3576 12.1598ZM43.2109 12.6398C43.2109 11.4543 44.172 10.4932 45.3576 10.4932C46.5432 10.4932 47.5043 11.4543 47.5043 12.6398C47.5043 13.8254 46.5432 14.7865 45.3576 14.7865C44.172 14.7865 43.2109 13.8254 43.2109 12.6398Z" fill="#061AB1"/>
<path fill-rule="evenodd" clip-rule="evenodd" d="M17.9779 13.4131C18.4381 13.4131 18.8112 13.7862 18.8112 14.2464V15.7931C18.8112 16.2533 18.4381 16.6264 17.9779 16.6264C17.5176 16.6264 17.1445 16.2533 17.1445 15.7931V14.2464C17.1445 13.7862 17.5176 13.4131 17.9779 13.4131Z" fill="#061AB1"/>
<path fill-rule="evenodd" clip-rule="evenodd" d="M23.5365 13.4131C23.9967 13.4131 24.3698 13.7862 24.3698 14.2464V15.7931C24.3698 16.2533 23.9967 16.6264 23.5365 16.6264C23.0762 16.6264 22.7031 16.2533 22.7031 15.7931V14.2464C22.7031 13.7862 23.0762 13.4131 23.5365 13.4131Z" fill="#061AB1"/>
<path fill-rule="evenodd" clip-rule="evenodd" d="M15.7539 12.0931C15.7539 11.6329 16.127 11.2598 16.5872 11.2598H24.9239C25.3841 11.2598 25.7572 11.6329 25.7572 12.0931V14.1598C25.7572 14.62 25.3841 14.9931 24.9239 14.9931H16.5872C16.127 14.9931 15.7539 14.62 15.7539 14.1598V12.0931ZM17.4206 12.9264V13.3264H24.0906V12.9264H17.4206Z" fill="#061AB1"/>
<path fill-rule="evenodd" clip-rule="evenodd" d="M15.7083 32.2305C16.1686 32.2305 16.5417 32.6036 16.5417 33.0638V41.8238C16.5417 42.284 16.1686 42.6571 15.7083 42.6571C15.2481 42.6571 14.875 42.284 14.875 41.8238V33.0638C14.875 32.6036 15.2481 32.2305 15.7083 32.2305Z" fill="#061AB1"/>
<path fill-rule="evenodd" clip-rule="evenodd" d="M15.7083 23.6963C16.1686 23.6963 16.5417 24.0694 16.5417 24.5296V31.0363C16.5417 31.4965 16.1686 31.8696 15.7083 31.8696C15.2481 31.8696 14.875 31.4965 14.875 31.0363V24.5296C14.875 24.0694 15.2481 23.6963 15.7083 23.6963Z" fill="#061AB1"/>
<path fill-rule="evenodd" clip-rule="evenodd" d="M20.7552 7.34375C21.2154 7.34375 21.5885 7.71685 21.5885 8.17708V12.0937C21.5885 12.554 21.2154 12.9271 20.7552 12.9271C20.295 12.9271 19.9219 12.554 19.9219 12.0937V8.17708C19.9219 7.71685 20.295 7.34375 20.7552 7.34375Z" fill="#061AB1"/>
<path fill-rule="evenodd" clip-rule="evenodd" d="M14.9527 15.4856C15.11 15.3292 15.3231 15.242 15.5449 15.2432L25.9749 15.2998C26.4334 15.3023 26.8037 15.6747 26.8037 16.1332V41.8232C26.8037 42.2834 26.4306 42.6565 25.9704 42.6565C25.5101 42.6565 25.137 42.2834 25.137 41.8232V16.962L16.3737 16.9144V22.4132C16.3737 22.8734 16.0006 23.2465 15.5404 23.2465C15.0801 23.2465 14.707 22.8734 14.707 22.4132V16.0765C14.707 15.8547 14.7955 15.6421 14.9527 15.4856Z" fill="#061AB1"/>
<path fill-rule="evenodd" clip-rule="evenodd" d="M25.3047 20.3001C25.3047 19.8399 25.6778 19.4668 26.138 19.4668H36.568C37.0283 19.4668 37.4014 19.8399 37.4014 20.3001V41.8235C37.4014 42.2837 37.0283 42.6568 36.568 42.6568C36.1078 42.6568 35.7347 42.2837 35.7347 41.8235V21.1335H26.138C25.6778 21.1335 25.3047 20.7604 25.3047 20.3001Z" fill="#061AB1"/>
<path fill-rule="evenodd" clip-rule="evenodd" d="M25.1445 24.5296C25.1445 24.0694 25.5176 23.6963 25.9779 23.6963H31.4479C31.9081 23.6963 32.2812 24.0694 32.2812 24.5296C32.2812 24.9899 31.9081 25.363 31.4479 25.363H25.9779C25.5176 25.363 25.1445 24.9899 25.1445 24.5296Z" fill="#061AB1"/>
<path fill-rule="evenodd" clip-rule="evenodd" d="M25.1445 27.1497C25.1445 26.6895 25.5176 26.3164 25.9779 26.3164H31.4479C31.9081 26.3164 32.2812 26.6895 32.2812 27.1497C32.2812 27.61 31.9081 27.9831 31.4479 27.9831H25.9779C25.5176 27.9831 25.1445 27.61 25.1445 27.1497Z" fill="#061AB1"/>
<path fill-rule="evenodd" clip-rule="evenodd" d="M25.1445 29.7699C25.1445 29.3096 25.5176 28.9365 25.9779 28.9365H31.4479C31.9081 28.9365 32.2812 29.3096 32.2812 29.7699C32.2812 30.2301 31.9081 30.6032 31.4479 30.6032H25.9779C25.5176 30.6032 25.1445 30.2301 25.1445 29.7699Z" fill="#061AB1"/>
<path fill-rule="evenodd" clip-rule="evenodd" d="M25.1445 32.39C25.1445 31.9297 25.5176 31.5566 25.9779 31.5566H31.4479C31.9081 31.5566 32.2812 31.9297 32.2812 32.39C32.2812 32.8502 31.9081 33.2233 31.4479 33.2233H25.9779C25.5176 33.2233 25.1445 32.8502 25.1445 32.39Z" fill="#061AB1"/>
<path fill-rule="evenodd" clip-rule="evenodd" d="M25.1445 35.0062C25.1445 34.5459 25.5176 34.1729 25.9779 34.1729H31.4479C31.9081 34.1729 32.2812 34.5459 32.2812 35.0062C32.2812 35.4664 31.9081 35.8395 31.4479 35.8395H25.9779C25.5176 35.8395 25.1445 35.4664 25.1445 35.0062Z" fill="#061AB1"/>
<path d="M18.6361 18.6934H17.6628C17.5694 18.6934 17.4961 18.77 17.4961 18.86V22.61C17.4961 22.7034 17.5728 22.7767 17.6628 22.7767H18.6361C18.7294 22.7767 18.8028 22.7 18.8028 22.61V18.86C18.8028 18.7667 18.7261 18.6934 18.6361 18.6934Z" fill="#061AB1"/>
<path d="M20.7572 18.6934H19.7839C19.6905 18.6934 19.6172 18.77 19.6172 18.86V22.61C19.6172 22.7034 19.6939 22.7767 19.7839 22.7767H20.7572C20.8505 22.7767 20.9239 22.7 20.9239 22.61V18.86C20.9239 18.7667 20.8472 18.6934 20.7572 18.6934Z" fill="#061AB1"/>
<path d="M18.6361 23.377H17.6628C17.5694 23.377 17.4961 23.4536 17.4961 23.5436V27.2936C17.4961 27.387 17.5728 27.4603 17.6628 27.4603H18.6361C18.7294 27.4603 18.8028 27.3836 18.8028 27.2936V23.5436C18.8028 23.4503 18.7261 23.377 18.6361 23.377Z" fill="#061AB1"/>
<path d="M20.7572 23.377H19.7839C19.6905 23.377 19.6172 23.4536 19.6172 23.5436V27.2936C19.6172 27.387 19.6939 27.4603 19.7839 27.4603H20.7572C20.8505 27.4603 20.9239 27.3836 20.9239 27.2936V23.5436C20.9239 23.4503 20.8472 23.377 20.7572 23.377Z" fill="#061AB1"/>
<path d="M18.6361 28.0596H17.6628C17.5694 28.0596 17.4961 28.1362 17.4961 28.2262V31.9762C17.4961 32.0696 17.5728 32.1429 17.6628 32.1429H18.6361C18.7294 32.1429 18.8028 32.0662 18.8028 31.9762V28.2262C18.8028 28.1329 18.7261 28.0596 18.6361 28.0596Z" fill="#061AB1"/>
<path d="M20.7572 28.0596H19.7839C19.6905 28.0596 19.6172 28.1362 19.6172 28.2262V31.9762C19.6172 32.0696 19.6939 32.1429 19.7839 32.1429H20.7572C20.8505 32.1429 20.9239 32.0662 20.9239 31.9762V28.2262C20.9239 28.1329 20.8472 28.0596 20.7572 28.0596Z" fill="#061AB1"/>
<path d="M18.6361 32.7432H17.6628C17.5694 32.7432 17.4961 32.8198 17.4961 32.9098V36.6598C17.4961 36.7532 17.5728 36.8265 17.6628 36.8265H18.6361C18.7294 36.8265 18.8028 36.7498 18.8028 36.6598V32.9098C18.8028 32.8165 18.7261 32.7432 18.6361 32.7432Z" fill="#061AB1"/>
<path d="M20.7572 32.7432H19.7839C19.6905 32.7432 19.6172 32.8198 19.6172 32.9098V36.6598C19.6172 36.7532 19.6939 36.8265 19.7839 36.8265H20.7572C20.8505 36.8265 20.9239 36.7498 20.9239 36.6598V32.9098C20.9239 32.8165 20.8472 32.7432 20.7572 32.7432Z" fill="#061AB1"/>
<path fill-rule="evenodd" clip-rule="evenodd" d="M41.0046 15.1237C39.8682 15.1237 38.9479 16.0439 38.9479 17.1804C38.9479 18.3168 39.8682 19.237 41.0046 19.237H44.3112C45.0243 19.237 45.6046 18.6568 45.6046 17.9437C45.6046 17.2298 45.0268 16.6504 44.3112 16.6504C44.1604 16.6504 44.0198 16.675 43.8888 16.7206C43.4882 16.8602 43.0466 16.6765 42.8632 16.294C42.53 15.5992 41.8224 15.1237 41.0046 15.1237ZM37.2812 17.1804C37.2812 15.1235 38.9477 13.457 41.0046 13.457C42.2466 13.457 43.346 14.0641 44.0229 14.9975C44.1181 14.9883 44.2142 14.9837 44.3112 14.9837C45.949 14.9837 47.2713 16.311 47.2713 17.9437C47.2713 19.5773 45.9448 20.9037 44.3112 20.9037H41.0046C38.9477 20.9037 37.2812 19.2373 37.2812 17.1804Z" fill="#061AB1"/>
<path fill-rule="evenodd" clip-rule="evenodd" d="M1.77734 41.8236C1.77734 41.3633 2.15044 40.9902 2.61068 40.9902H47.3907C47.8509 40.9902 48.224 41.3633 48.224 41.8236C48.224 42.2838 47.8509 42.6569 47.3907 42.6569H2.61068C2.15044 42.6569 1.77734 42.2838 1.77734 41.8236Z" fill="#061AB1"/>
<path fill-rule="evenodd" clip-rule="evenodd" d="M42.1849 36.5234C42.6451 36.5234 43.0182 36.8965 43.0182 37.3568V41.8234C43.0182 42.2837 42.6451 42.6568 42.1849 42.6568C41.7247 42.6568 41.3516 42.2837 41.3516 41.8234V37.3568C41.3516 36.8965 41.7247 36.5234 42.1849 36.5234Z" fill="#061AB1"/>
<path fill-rule="evenodd" clip-rule="evenodd" d="M39.725 35.4214C40.0393 34.3539 41.0235 33.5732 42.1944 33.5732C43.3671 33.5732 44.3557 34.359 44.6666 35.433C45.4013 35.8871 45.891 36.7008 45.891 37.6299C45.891 39.0537 44.741 40.2132 43.3144 40.2132C42.91 40.2132 42.5275 40.1193 42.1877 39.9538C41.8479 40.1193 41.4654 40.2132 41.061 40.2132C39.6344 40.2132 38.4844 39.0537 38.4844 37.6299C38.4844 36.6907 38.9826 35.8739 39.725 35.4214ZM42.1944 35.2399C41.7238 35.2399 41.3344 35.5999 41.2907 36.0646C41.2607 36.3835 41.0506 36.657 40.7502 36.7681C40.3993 36.898 40.151 37.2339 40.151 37.6299C40.151 38.1394 40.5611 38.5466 41.061 38.5466C41.285 38.5466 41.4896 38.4657 41.6494 38.3304C41.9601 38.0675 42.4153 38.0675 42.726 38.3304C42.8858 38.4657 43.0904 38.5466 43.3144 38.5466C43.8144 38.5466 44.2244 38.1394 44.2244 37.6299C44.2244 37.2392 43.9808 36.9059 43.6379 36.7754C43.612 36.7655 43.5867 36.7544 43.5619 36.742L43.5553 36.7387C43.2967 36.6096 43.1236 36.3557 43.0977 36.0678C43.0559 35.6021 42.6644 35.2399 42.1944 35.2399Z" fill="#061AB1"/>
<path fill-rule="evenodd" clip-rule="evenodd" d="M7.8138 36.5234C8.27404 36.5234 8.64714 36.8965 8.64714 37.3568V41.8234C8.64714 42.2837 8.27404 42.6568 7.8138 42.6568C7.35356 42.6568 6.98047 42.2837 6.98047 41.8234V37.3568C6.98047 36.8965 7.35356 36.5234 7.8138 36.5234Z" fill="#061AB1"/>
<path d="M7.82286 33.4034C8.72953 33.4034 9.4762 34.1001 9.5562 34.9901C10.2129 35.2401 10.6795 35.8767 10.6795 36.6234C10.6795 37.5901 9.89953 38.3734 8.9362 38.3734C8.5062 38.3734 8.11286 38.2167 7.80953 37.9601C7.5062 38.2167 7.11286 38.3734 6.68286 38.3734C5.71953 38.3734 4.93953 37.5901 4.93953 36.6234C4.93953 35.8701 5.4162 35.2267 6.08286 34.9801C6.1662 34.0934 6.91286 33.4001 7.8162 33.4001M7.8162 31.7334C6.38286 31.7334 5.14953 32.6101 4.6462 33.8834C3.79953 34.5167 3.26953 35.5301 3.26953 36.6234C3.26953 38.5067 4.79953 40.0401 6.67953 40.0401C7.0662 40.0401 7.4462 39.9734 7.8062 39.8467C8.1662 39.9734 8.5462 40.0401 8.93286 40.0401C10.8129 40.0401 12.3429 38.5067 12.3429 36.6234C12.3429 35.5467 11.8262 34.5434 10.9962 33.9067C10.4995 32.6201 9.26286 31.7367 7.81953 31.7367L7.8162 31.7334Z" fill="#061AB1"/>
</svg>
