<svg width="36" height="36" viewBox="0 0 36 36" fill="none" xmlns="http://www.w3.org/2000/svg">
<mask id="path-1-inside-1_683_22769" fill="white">
<path fill-rule="evenodd" clip-rule="evenodd" d="M2.01242 19.8792V31.9698C2.01242 32.5042 2.22444 33.0168 2.60185 33.3947C2.97925 33.7726 3.49112 33.9849 4.02484 33.9849H28.1739C28.7076 33.9849 29.2195 33.7726 29.5969 33.3947C29.9743 33.0168 30.1863 32.5042 30.1863 31.9698V19.8792C30.1863 19.3447 29.9743 18.8322 29.5969 18.4543C29.2195 18.0764 28.7076 17.8641 28.1739 17.8641H4.02484C3.49112 17.8641 2.97925 18.0764 2.60185 18.4543C2.22444 18.8322 2.01242 19.3447 2.01242 19.8792ZM0 31.9698C0 33.0387 0.424045 34.0638 1.17885 34.8196C1.93365 35.5754 2.95739 36 4.02484 36H28.1739C29.2414 36 30.2651 35.5754 31.0199 34.8196C31.7747 34.0638 32.1988 33.0387 32.1988 31.9698V19.8792C32.1988 18.8103 31.7747 17.7852 31.0199 17.0294C30.2651 16.2736 29.2414 15.849 28.1739 15.849H4.02484C2.95739 15.849 1.93365 16.2736 1.17885 17.0294C0.424045 17.7852 0 18.8103 0 19.8792V31.9698Z"/>
<path fill-rule="evenodd" clip-rule="evenodd" d="M28.1739 25.9245C28.1739 25.39 27.9619 24.8775 27.5845 24.4996C27.2071 24.1217 26.6952 23.9094 26.1615 23.9094C25.6278 23.9094 25.1159 24.1217 24.7385 24.4996C24.3611 24.8775 24.1491 25.39 24.1491 25.9245C24.1491 26.4589 24.3611 26.9715 24.7385 27.3494C25.1159 27.7273 25.6278 27.9396 26.1615 27.9396C26.6952 27.9396 27.2071 27.7273 27.5845 27.3494C27.9619 26.9715 28.1739 26.4589 28.1739 25.9245Z"/>
<path fill-rule="evenodd" clip-rule="evenodd" d="M33.0269 0.119164C32.7169 0.040651 32.396 0 32.071 0H30.8432V1.98312H32.071C32.2309 1.98312 32.3888 2.0028 32.5415 2.04084C32.544 2.04146 32.5465 2.04208 32.5489 2.0427L33.0343 0.121042C33.0318 0.120413 33.0294 0.119787 33.0269 0.119164ZM34.0922 0.565076L33.0695 2.25841C33.0736 2.26081 33.0776 2.26323 33.0816 2.26566C33.2138 2.3457 33.3372 2.44178 33.4488 2.55265C33.4526 2.5564 33.4564 2.56017 33.4601 2.56396C33.5717 2.6766 33.6685 2.80139 33.7492 2.93526C33.7516 2.93929 33.754 2.94333 33.7564 2.94737L35.449 1.94067C35.4466 1.93661 35.4442 1.93256 35.4418 1.92851C35.2802 1.65612 35.0856 1.40216 34.8604 1.17306C34.8567 1.16926 34.853 1.16547 34.8492 1.16168C34.6234 0.933767 34.373 0.736453 34.1043 0.572387C34.1003 0.569943 34.0962 0.567506 34.0922 0.565076ZM35.8826 3.00375L33.975 3.47776C33.9756 3.48017 33.9762 3.48258 33.9768 3.48499C34.0155 3.6411 34.0355 3.80262 34.0355 3.96624V5.20569H36V3.96624C36 3.64154 35.9606 3.32094 35.8844 3.01098C35.8838 3.00857 35.8832 3.00616 35.8826 3.00375ZM36 6.69303H34.0355V9.17192H36V6.69303ZM36 10.6593H34.0355V13.1382H36V10.6593ZM36 14.6255H34.0355V17.1044H36V14.6255ZM36 18.5917H34.0355V21.0706H36V18.5917ZM36 22.558H34.0355V25.0369H36V22.558ZM36 26.5242H34.0355V27.7637C34.0355 27.9273 34.0155 28.0888 33.9768 28.2449C33.9762 28.2473 33.9756 28.2497 33.975 28.2521L35.8826 28.7262C35.8832 28.7237 35.8838 28.7213 35.8844 28.7189C35.9606 28.409 36 28.0884 36 27.7637V26.5242ZM35.449 29.7892L33.7564 28.7825C33.754 28.7866 33.7516 28.7906 33.7492 28.7946C33.6685 28.9285 33.5717 29.0533 33.4601 29.1659C33.4564 29.1697 33.4526 29.1735 33.4488 29.1772C33.3372 29.2881 33.2138 29.3842 33.0816 29.4642C33.0776 29.4667 33.0736 29.4691 33.0695 29.4715L34.0922 31.1648C34.0963 31.1624 34.1003 31.16 34.1043 31.1575C34.373 30.9934 34.6234 30.7961 34.8492 30.5682C34.853 30.5644 34.8567 30.5606 34.8604 30.5568C35.0856 30.3277 35.2802 30.0738 35.4418 29.8014C35.4442 29.7973 35.4466 29.7933 35.449 29.7892ZM16.3549 13.1382H18.3194V10.6593H16.3549V13.1382ZM16.3549 9.17192H18.3194V6.69303H16.3549V9.17192ZM16.3549 5.20569H18.3194V3.96624C18.3194 3.80262 18.3395 3.6411 18.3781 3.48499C18.3787 3.48258 18.3793 3.48017 18.38 3.47776L16.4724 3.00375C16.4718 3.00616 16.4712 3.00857 16.4706 3.01098C16.3944 3.32094 16.3549 3.64154 16.3549 3.96624V5.20569ZM16.9059 1.94067L18.5985 2.94737C18.6009 2.94333 18.6033 2.93929 18.6058 2.93526C18.6865 2.80139 18.7832 2.6766 18.8948 2.56396C18.8986 2.56017 18.9023 2.5564 18.9061 2.55265C19.0177 2.44178 19.1411 2.3457 19.2733 2.26566C19.2773 2.26323 19.2813 2.26081 19.2854 2.25841L18.2627 0.565077C18.2587 0.567506 18.2547 0.569943 18.2507 0.572386C17.9819 0.736452 17.7315 0.933767 17.5057 1.16168C17.502 1.16547 17.4982 1.16926 17.4945 1.17306C17.2694 1.40216 17.0747 1.65612 16.9131 1.92851C16.9107 1.93256 16.9083 1.93661 16.9059 1.94067ZM19.3206 0.121042L19.806 2.0427C19.8084 2.04208 19.8109 2.04146 19.8134 2.04084C19.9661 2.0028 20.124 1.98312 20.2839 1.98312H21.5118V0H20.2839C19.9589 0 19.6381 0.040651 19.328 0.119164C19.3256 0.119787 19.3231 0.120413 19.3206 0.121042ZM22.9851 0V1.98312H25.4408V0H22.9851ZM26.9142 0V1.98312H29.3698V0H26.9142Z"/>
<path fill-rule="evenodd" clip-rule="evenodd" d="M26.1775 27.7637C26.6985 27.7637 27.1982 27.5547 27.5666 27.1828C27.935 26.8109 28.142 26.3065 28.142 25.7805C28.142 25.2546 27.935 24.7502 27.5666 24.3783C27.1982 24.0064 26.6985 23.7974 26.1775 23.7974C25.6564 23.7974 25.1568 24.0064 24.7883 24.3783C24.4199 24.7502 24.213 25.2546 24.213 25.7805C24.213 26.3065 24.4199 26.8109 24.7883 27.1828C25.1568 27.5547 25.6564 27.7637 26.1775 27.7637Z"/>
<path d="M8.85381 10.2355H3.41239C3.34665 10.2355 3.28228 10.2549 3.22681 10.2914C3.17135 10.3279 3.12708 10.38 3.0992 10.4416C3.07132 10.5032 3.06098 10.5717 3.06939 10.6391C3.0778 10.7066 3.10461 10.7701 3.14668 10.8224L5.86739 14.2009C5.89986 14.2412 5.94049 14.2736 5.98641 14.2959C6.03232 14.3181 6.0824 14.3296 6.1331 14.3296C6.18379 14.3296 6.23387 14.3181 6.27979 14.2959C6.3257 14.2736 6.36633 14.2412 6.3988 14.2009L9.11951 10.8224C9.16158 10.7701 9.18839 10.7066 9.1968 10.6391C9.20521 10.5717 9.19487 10.5032 9.16699 10.4416C9.13911 10.38 9.09485 10.3279 9.03938 10.2914C8.98392 10.2549 8.91954 10.2355 8.85381 10.2355Z"/>
<path d="M5.22617 10.4372C5.56671 8.10146 6.64835 5.93731 8.31137 4.26434C9.97439 2.59136 12.1306 1.49825 14.4616 1.14644L14.6749 2.56333C12.6475 2.86933 10.772 3.82009 9.32558 5.27519C7.87912 6.7303 6.93834 8.61262 6.64215 10.6442L5.22617 10.4372Z"/>
</mask>
<path fill-rule="evenodd" clip-rule="evenodd" d="M2.01242 19.8792V31.9698C2.01242 32.5042 2.22444 33.0168 2.60185 33.3947C2.97925 33.7726 3.49112 33.9849 4.02484 33.9849H28.1739C28.7076 33.9849 29.2195 33.7726 29.5969 33.3947C29.9743 33.0168 30.1863 32.5042 30.1863 31.9698V19.8792C30.1863 19.3447 29.9743 18.8322 29.5969 18.4543C29.2195 18.0764 28.7076 17.8641 28.1739 17.8641H4.02484C3.49112 17.8641 2.97925 18.0764 2.60185 18.4543C2.22444 18.8322 2.01242 19.3447 2.01242 19.8792ZM0 31.9698C0 33.0387 0.424045 34.0638 1.17885 34.8196C1.93365 35.5754 2.95739 36 4.02484 36H28.1739C29.2414 36 30.2651 35.5754 31.0199 34.8196C31.7747 34.0638 32.1988 33.0387 32.1988 31.9698V19.8792C32.1988 18.8103 31.7747 17.7852 31.0199 17.0294C30.2651 16.2736 29.2414 15.849 28.1739 15.849H4.02484C2.95739 15.849 1.93365 16.2736 1.17885 17.0294C0.424045 17.7852 0 18.8103 0 19.8792V31.9698Z" fill="black"/>
<path fill-rule="evenodd" clip-rule="evenodd" d="M28.1739 25.9245C28.1739 25.39 27.9619 24.8775 27.5845 24.4996C27.2071 24.1217 26.6952 23.9094 26.1615 23.9094C25.6278 23.9094 25.1159 24.1217 24.7385 24.4996C24.3611 24.8775 24.1491 25.39 24.1491 25.9245C24.1491 26.4589 24.3611 26.9715 24.7385 27.3494C25.1159 27.7273 25.6278 27.9396 26.1615 27.9396C26.6952 27.9396 27.2071 27.7273 27.5845 27.3494C27.9619 26.9715 28.1739 26.4589 28.1739 25.9245Z" fill="black"/>
<path fill-rule="evenodd" clip-rule="evenodd" d="M33.0269 0.119164C32.7169 0.040651 32.396 0 32.071 0H30.8432V1.98312H32.071C32.2309 1.98312 32.3888 2.0028 32.5415 2.04084C32.544 2.04146 32.5465 2.04208 32.5489 2.0427L33.0343 0.121042C33.0318 0.120413 33.0294 0.119787 33.0269 0.119164ZM34.0922 0.565076L33.0695 2.25841C33.0736 2.26081 33.0776 2.26323 33.0816 2.26566C33.2138 2.3457 33.3372 2.44178 33.4488 2.55265C33.4526 2.5564 33.4564 2.56017 33.4601 2.56396C33.5717 2.6766 33.6685 2.80139 33.7492 2.93526C33.7516 2.93929 33.754 2.94333 33.7564 2.94737L35.449 1.94067C35.4466 1.93661 35.4442 1.93256 35.4418 1.92851C35.2802 1.65612 35.0856 1.40216 34.8604 1.17306C34.8567 1.16926 34.853 1.16547 34.8492 1.16168C34.6234 0.933767 34.373 0.736453 34.1043 0.572387C34.1003 0.569943 34.0962 0.567506 34.0922 0.565076ZM35.8826 3.00375L33.975 3.47776C33.9756 3.48017 33.9762 3.48258 33.9768 3.48499C34.0155 3.6411 34.0355 3.80262 34.0355 3.96624V5.20569H36V3.96624C36 3.64154 35.9606 3.32094 35.8844 3.01098C35.8838 3.00857 35.8832 3.00616 35.8826 3.00375ZM36 6.69303H34.0355V9.17192H36V6.69303ZM36 10.6593H34.0355V13.1382H36V10.6593ZM36 14.6255H34.0355V17.1044H36V14.6255ZM36 18.5917H34.0355V21.0706H36V18.5917ZM36 22.558H34.0355V25.0369H36V22.558ZM36 26.5242H34.0355V27.7637C34.0355 27.9273 34.0155 28.0888 33.9768 28.2449C33.9762 28.2473 33.9756 28.2497 33.975 28.2521L35.8826 28.7262C35.8832 28.7237 35.8838 28.7213 35.8844 28.7189C35.9606 28.409 36 28.0884 36 27.7637V26.5242ZM35.449 29.7892L33.7564 28.7825C33.754 28.7866 33.7516 28.7906 33.7492 28.7946C33.6685 28.9285 33.5717 29.0533 33.4601 29.1659C33.4564 29.1697 33.4526 29.1735 33.4488 29.1772C33.3372 29.2881 33.2138 29.3842 33.0816 29.4642C33.0776 29.4667 33.0736 29.4691 33.0695 29.4715L34.0922 31.1648C34.0963 31.1624 34.1003 31.16 34.1043 31.1575C34.373 30.9934 34.6234 30.7961 34.8492 30.5682C34.853 30.5644 34.8567 30.5606 34.8604 30.5568C35.0856 30.3277 35.2802 30.0738 35.4418 29.8014C35.4442 29.7973 35.4466 29.7933 35.449 29.7892ZM16.3549 13.1382H18.3194V10.6593H16.3549V13.1382ZM16.3549 9.17192H18.3194V6.69303H16.3549V9.17192ZM16.3549 5.20569H18.3194V3.96624C18.3194 3.80262 18.3395 3.6411 18.3781 3.48499C18.3787 3.48258 18.3793 3.48017 18.38 3.47776L16.4724 3.00375C16.4718 3.00616 16.4712 3.00857 16.4706 3.01098C16.3944 3.32094 16.3549 3.64154 16.3549 3.96624V5.20569ZM16.9059 1.94067L18.5985 2.94737C18.6009 2.94333 18.6033 2.93929 18.6058 2.93526C18.6865 2.80139 18.7832 2.6766 18.8948 2.56396C18.8986 2.56017 18.9023 2.5564 18.9061 2.55265C19.0177 2.44178 19.1411 2.3457 19.2733 2.26566C19.2773 2.26323 19.2813 2.26081 19.2854 2.25841L18.2627 0.565077C18.2587 0.567506 18.2547 0.569943 18.2507 0.572386C17.9819 0.736452 17.7315 0.933767 17.5057 1.16168C17.502 1.16547 17.4982 1.16926 17.4945 1.17306C17.2694 1.40216 17.0747 1.65612 16.9131 1.92851C16.9107 1.93256 16.9083 1.93661 16.9059 1.94067ZM19.3206 0.121042L19.806 2.0427C19.8084 2.04208 19.8109 2.04146 19.8134 2.04084C19.9661 2.0028 20.124 1.98312 20.2839 1.98312H21.5118V0H20.2839C19.9589 0 19.6381 0.040651 19.328 0.119164C19.3256 0.119787 19.3231 0.120413 19.3206 0.121042ZM22.9851 0V1.98312H25.4408V0H22.9851ZM26.9142 0V1.98312H29.3698V0H26.9142Z" fill="black"/>
<path fill-rule="evenodd" clip-rule="evenodd" d="M26.1775 27.7637C26.6985 27.7637 27.1982 27.5547 27.5666 27.1828C27.935 26.8109 28.142 26.3065 28.142 25.7805C28.142 25.2546 27.935 24.7502 27.5666 24.3783C27.1982 24.0064 26.6985 23.7974 26.1775 23.7974C25.6564 23.7974 25.1568 24.0064 24.7883 24.3783C24.4199 24.7502 24.213 25.2546 24.213 25.7805C24.213 26.3065 24.4199 26.8109 24.7883 27.1828C25.1568 27.5547 25.6564 27.7637 26.1775 27.7637Z" fill="black"/>
<path d="M8.85381 10.2355H3.41239C3.34665 10.2355 3.28228 10.2549 3.22681 10.2914C3.17135 10.3279 3.12708 10.38 3.0992 10.4416C3.07132 10.5032 3.06098 10.5717 3.06939 10.6391C3.0778 10.7066 3.10461 10.7701 3.14668 10.8224L5.86739 14.2009C5.89986 14.2412 5.94049 14.2736 5.98641 14.2959C6.03232 14.3181 6.0824 14.3296 6.1331 14.3296C6.18379 14.3296 6.23387 14.3181 6.27979 14.2959C6.3257 14.2736 6.36633 14.2412 6.3988 14.2009L9.11951 10.8224C9.16158 10.7701 9.18839 10.7066 9.1968 10.6391C9.20521 10.5717 9.19487 10.5032 9.16699 10.4416C9.13911 10.38 9.09485 10.3279 9.03938 10.2914C8.98392 10.2549 8.91954 10.2355 8.85381 10.2355Z" fill="black"/>
<path d="M5.22617 10.4372C5.56671 8.10146 6.64835 5.93731 8.31137 4.26434C9.97439 2.59136 12.1306 1.49825 14.4616 1.14644L14.6749 2.56333C12.6475 2.86933 10.772 3.82009 9.32558 5.27519C7.87912 6.7303 6.93834 8.61262 6.64215 10.6442L5.22617 10.4372Z" fill="black"/>
<path d="M2.01242 19.8792H1.01242H2.01242ZM2.01242 31.9698H1.01242H2.01242ZM28.1739 17.8641V16.8641V17.8641ZM0 31.9698H-1H0ZM28.1739 15.849V14.849V15.849ZM4.02484 15.849V14.849V15.849ZM0 19.8792H-1H0ZM33.0269 0.119164L32.7814 1.08856L32.7814 1.08857L33.0269 0.119164ZM30.8432 0V-1L29.8432 0H30.8432ZM30.8432 1.98312H29.8432L30.8432 2.98312V1.98312ZM32.5415 2.04084L32.7833 1.0705L32.7832 1.07049L32.5415 2.04084ZM32.5489 2.0427L32.3035 3.01211L33.5185 2.28757L32.5489 2.0427ZM33.0343 0.121042L34.0038 0.365915L33.2817 -0.847867L33.0343 0.121042ZM34.0922 0.565076L34.6102 -0.290344L33.2362 0.0480982L34.0922 0.565076ZM33.0695 2.25841L32.2136 1.74143L32.5576 3.11745L33.0695 2.25841ZM33.0816 2.26566L32.5636 3.12101L32.5636 3.12104L33.0816 2.26566ZM33.4488 2.55265L32.7441 3.26214L32.7441 3.26217L33.4488 2.55265ZM33.4601 2.56396L34.1705 1.8602L34.1705 1.86019L33.4601 2.56396ZM33.7492 2.93526L32.8927 3.45154L32.8928 3.45168L33.7492 2.93526ZM33.7564 2.94737L32.8964 3.4577L34.2676 3.80684L33.7564 2.94737ZM35.449 1.94067L35.9602 2.80014L36.3109 1.4336L35.449 1.94067ZM35.4418 1.92851L34.5817 2.43869L34.5818 2.43879L35.4418 1.92851ZM34.8604 1.17306L35.5737 0.472173L35.5737 0.472141L34.8604 1.17306ZM34.8492 1.16168L35.5597 0.457997L35.5597 0.457919L34.8492 1.16168ZM34.1043 0.572387L34.6253 -0.281136L34.6252 -0.281188L34.1043 0.572387ZM35.8826 3.00375L36.8533 2.76346L35.6414 2.03326L35.8826 3.00375ZM33.975 3.47776L33.7338 2.50728L33.0053 3.72198L33.975 3.47776ZM33.9768 3.48499L33.0061 3.72526L33.0061 3.72554L33.9768 3.48499ZM34.0355 5.20569H33.0355L34.0355 6.20569V5.20569ZM36 5.20569V6.20569L37 5.20569H36ZM35.8844 3.01098L34.9133 3.24967L34.9133 3.24972L35.8844 3.01098ZM36 6.69303H37L36 5.69303V6.69303ZM34.0355 6.69303V5.69303L33.0355 6.69303H34.0355ZM34.0355 9.17192H33.0355L34.0355 10.1719V9.17192ZM36 9.17192V10.1719L37 9.17192H36ZM36 10.6593H37L36 9.65926V10.6593ZM34.0355 10.6593V9.65926L33.0355 10.6593H34.0355ZM34.0355 13.1382H33.0355L34.0355 14.1382V13.1382ZM36 13.1382V14.1382L37 13.1382H36ZM36 14.6255H37L36 13.6255V14.6255ZM34.0355 14.6255V13.6255L33.0355 14.6255H34.0355ZM34.0355 17.1044H33.0355L34.0355 18.1044V17.1044ZM36 17.1044V18.1044L37 17.1044H36ZM36 18.5917H37L36 17.5917V18.5917ZM34.0355 18.5917V17.5917L33.0355 18.5917H34.0355ZM34.0355 21.0706H33.0355L34.0355 22.0706V21.0706ZM36 21.0706V22.0706L37 21.0706H36ZM36 22.558H37L36 21.558V22.558ZM34.0355 22.558V21.558L33.0355 22.558H34.0355ZM34.0355 25.0369H33.0355L34.0355 26.0369V25.0369ZM36 25.0369V26.0369L37 25.0369H36ZM36 26.5242H37L36 25.5242V26.5242ZM34.0355 26.5242V25.5242L33.0355 26.5242H34.0355ZM33.9768 28.2449L33.0061 28.0044L33.0061 28.0047L33.9768 28.2449ZM33.975 28.2521L33.0053 28.0079L33.7338 29.2226L33.975 28.2521ZM35.8826 28.7262L35.6414 29.6966L36.8532 28.9665L35.8826 28.7262ZM35.8844 28.7189L34.9133 28.4802L34.9133 28.4802L35.8844 28.7189ZM35.449 29.7892L36.3109 30.2963L35.9602 28.9298L35.449 29.7892ZM33.7564 28.7825L34.2676 27.9231L32.8963 28.2724L33.7564 28.7825ZM33.7492 28.7946L34.6056 29.3109L34.6057 29.3108L33.7492 28.7946ZM33.4601 29.1659L34.1704 29.8698L34.1705 29.8697L33.4601 29.1659ZM33.4488 29.1772L32.7442 28.4677L32.7441 28.4678L33.4488 29.1772ZM33.0816 29.4642L32.5636 28.6089L32.5635 28.6089L33.0816 29.4642ZM33.0695 29.4715L32.5578 28.6124L32.2136 29.9885L33.0695 29.4715ZM34.0922 31.1648L33.2362 31.6818L34.6102 32.0202L34.0922 31.1648ZM34.1043 31.1575L33.5832 30.304L33.5831 30.3041L34.1043 31.1575ZM34.8492 30.5682L35.5597 31.272L35.5597 31.2719L34.8492 30.5682ZM34.8604 30.5568L35.5737 31.2578L35.5737 31.2577L34.8604 30.5568ZM35.4418 29.8014L34.5818 29.2912L34.5817 29.2912L35.4418 29.8014ZM16.3549 13.1382H15.3549L16.3549 14.1382V13.1382ZM18.3194 13.1382V14.1382L19.3194 13.1382H18.3194ZM18.3194 10.6593H19.3194L18.3194 9.65926V10.6593ZM16.3549 10.6593V9.65926L15.3549 10.6593H16.3549ZM16.3549 9.17192H15.3549L16.3549 10.1719V9.17192ZM18.3194 9.17192V10.1719L19.3194 9.17192H18.3194ZM18.3194 6.69303H19.3194L18.3194 5.69303V6.69303ZM16.3549 6.69303V5.69303L15.3549 6.69303H16.3549ZM16.3549 5.20569H15.3549L16.3549 6.20569V5.20569ZM18.3194 5.20569V6.20569L19.3194 5.20569H18.3194ZM18.3781 3.48499L19.3488 3.72554L19.3488 3.72551L18.3781 3.48499ZM18.38 3.47776L19.3497 3.72191L18.6211 2.50728L18.38 3.47776ZM16.4724 3.00375L16.7135 2.03326L15.5017 2.76318L16.4724 3.00375ZM16.4706 3.01098L17.4417 3.24972L17.4417 3.24971L16.4706 3.01098ZM16.9059 1.94067L16.0441 1.43355L16.3947 2.80014L16.9059 1.94067ZM18.5985 2.94737L18.0873 3.80684L19.4586 3.45754L18.5985 2.94737ZM18.6058 2.93526L17.7494 2.41897L17.7493 2.41898L18.6058 2.93526ZM18.8948 2.56396L18.1844 1.86019L18.1844 1.8602L18.8948 2.56396ZM18.9061 2.55265L19.6108 3.26215L19.6108 3.26214L18.9061 2.55265ZM19.2733 2.26566L18.7553 1.41027L18.7553 1.41027L19.2733 2.26566ZM19.2854 2.25841L19.7972 3.11749L20.1414 1.74143L19.2854 2.25841ZM18.2627 0.565077L19.1187 0.0480973L17.7447 -0.290316L18.2627 0.565077ZM18.2507 0.572386L17.7296 -0.28114L17.7296 -0.281137L18.2507 0.572386ZM17.5057 1.16168L16.7953 0.457919L16.7953 0.457928L17.5057 1.16168ZM17.4945 1.17306L18.2078 1.87395L18.2078 1.87395L17.4945 1.17306ZM16.9131 1.92851L16.053 1.41833L16.053 1.41834L16.9131 1.92851ZM19.3206 0.121042L19.0733 -0.847876L18.3511 0.365916L19.3206 0.121042ZM19.806 2.0427L18.8364 2.28757L20.0515 3.0121L19.806 2.0427ZM19.8134 2.04084L19.5717 1.07049L19.5717 1.0705L19.8134 2.04084ZM21.5118 1.98312V2.98312L22.5118 1.98312H21.5118ZM21.5118 0H22.5118L21.5118 -1V0ZM19.328 0.119164L19.5735 1.08857L19.5735 1.08856L19.328 0.119164ZM22.9851 0V-1L21.9851 0H22.9851ZM22.9851 1.98312H21.9851L22.9851 2.98312V1.98312ZM25.4408 1.98312V2.98312L26.4408 1.98312H25.4408ZM25.4408 0H26.4408L25.4408 -1V0ZM26.9142 0V-1L25.9142 0H26.9142ZM26.9142 1.98312H25.9142L26.9142 2.98312V1.98312ZM29.3698 1.98312V2.98312L30.3698 1.98312H29.3698ZM29.3698 0H30.3698L29.3698 -1V0ZM8.85381 10.2355L8.85419 9.23545H8.85381V10.2355ZM3.41239 10.2355V9.23545H3.412L3.41239 10.2355ZM3.14668 10.8224L2.36778 11.4495L2.36783 11.4496L3.14668 10.8224ZM5.86739 14.2009L5.08854 14.8282L5.08886 14.8286L5.86739 14.2009ZM6.3988 14.2009L7.17734 14.8286L7.17766 14.8282L6.3988 14.2009ZM9.11951 10.8224L9.89837 11.4496L9.89841 11.4495L9.11951 10.8224ZM5.22617 10.4372L4.23663 10.2929L4.09242 11.2821L5.08152 11.4267L5.22617 10.4372ZM14.4616 1.14644L15.4505 0.997593L15.3016 0.00834518L14.3124 0.15764L14.4616 1.14644ZM14.6749 2.56333L14.8241 3.55213L15.8126 3.40296L15.6638 2.41448L14.6749 2.56333ZM6.64215 10.6442L6.4975 11.6337L7.48736 11.7784L7.63169 10.7884L6.64215 10.6442ZM1.01242 19.8792V31.9698H3.01242V19.8792H1.01242ZM1.01242 31.9698C1.01242 32.769 1.32948 33.5358 1.89427 34.1013L3.30942 32.6881C3.11941 32.4978 3.01242 32.2394 3.01242 31.9698H1.01242ZM1.89427 34.1013C2.45911 34.6669 3.22547 34.9849 4.02484 34.9849V32.9849C3.75676 32.9849 3.49939 32.8783 3.30942 32.6881L1.89427 34.1013ZM4.02484 34.9849H28.1739V32.9849H4.02484V34.9849ZM28.1739 34.9849C28.9733 34.9849 29.7397 34.6669 30.3045 34.1013L28.8893 32.6881C28.6994 32.8783 28.442 32.9849 28.1739 32.9849V34.9849ZM30.3045 34.1013C30.8693 33.5358 31.1863 32.769 31.1863 31.9698H29.1863C29.1863 32.2394 29.0793 32.4978 28.8893 32.6881L30.3045 34.1013ZM31.1863 31.9698V19.8792H29.1863V31.9698H31.1863ZM31.1863 19.8792C31.1863 19.0799 30.8693 18.3132 30.3045 17.7476L28.8893 19.1609C29.0793 19.3512 29.1863 19.6095 29.1863 19.8792H31.1863ZM30.3045 17.7476C29.7397 17.182 28.9733 16.8641 28.1739 16.8641V18.8641C28.442 18.8641 28.6994 18.9707 28.8893 19.1609L30.3045 17.7476ZM28.1739 16.8641H4.02484V18.8641H28.1739V16.8641ZM4.02484 16.8641C3.22547 16.8641 2.45911 17.182 1.89427 17.7476L3.30942 19.1609C3.49939 18.9707 3.75676 18.8641 4.02484 18.8641V16.8641ZM1.89427 17.7476C1.32948 18.3132 1.01242 19.0799 1.01242 19.8792H3.01242C3.01242 19.6095 3.11941 19.3512 3.30942 19.1609L1.89427 17.7476ZM-1 31.9698C-1 33.3035 -0.470921 34.5828 0.471272 35.5262L1.88643 34.1129C1.31901 33.5448 1 32.7739 1 31.9698H-1ZM0.471272 35.5262C1.41351 36.4697 2.69174 37 4.02484 37V35C3.22304 35 2.4538 34.6811 1.88643 34.1129L0.471272 35.5262ZM4.02484 37H28.1739V35H4.02484V37ZM28.1739 37C29.507 37 30.7852 36.4697 31.7275 35.5262L30.3123 34.1129C29.745 34.6811 28.9757 35 28.1739 35V37ZM31.7275 35.5262C32.6697 34.5828 33.1988 33.3035 33.1988 31.9698H31.1988C31.1988 32.7739 30.8797 33.5448 30.3123 34.1129L31.7275 35.5262ZM33.1988 31.9698V19.8792H31.1988V31.9698H33.1988ZM33.1988 19.8792C33.1988 18.5455 32.6697 17.2662 31.7275 16.3227L30.3123 17.736C30.8797 18.3042 31.1988 19.0751 31.1988 19.8792H33.1988ZM31.7275 16.3227C30.7852 15.3792 29.507 14.849 28.1739 14.849V16.849C28.9757 16.849 29.745 17.1679 30.3123 17.736L31.7275 16.3227ZM28.1739 14.849H4.02484V16.849H28.1739V14.849ZM4.02484 14.849C2.69174 14.849 1.41351 15.3792 0.471272 16.3227L1.88643 17.736C2.4538 17.1679 3.22304 16.849 4.02484 16.849V14.849ZM0.471272 16.3227C-0.470921 17.2662 -1 18.5455 -1 19.8792H1C1 19.0751 1.31901 18.3042 1.88643 17.736L0.471272 16.3227ZM-1 19.8792V31.9698H1V19.8792H-1ZM29.1739 25.9245C29.1739 25.1253 28.8569 24.3585 28.2921 23.7929L26.8769 25.2062C27.0669 25.3965 27.1739 25.6548 27.1739 25.9245H29.1739ZM28.2921 23.7929C27.7272 23.2274 26.9609 22.9094 26.1615 22.9094V24.9094C26.4296 24.9094 26.6869 25.016 26.8769 25.2062L28.2921 23.7929ZM26.1615 22.9094C25.3621 22.9094 24.5958 23.2274 24.0309 23.7929L25.4461 25.2062C25.636 25.016 25.8934 24.9094 26.1615 24.9094V22.9094ZM24.0309 23.7929C23.4661 24.3585 23.1491 25.1253 23.1491 25.9245H25.1491C25.1491 25.6548 25.2561 25.3965 25.4461 25.2062L24.0309 23.7929ZM23.1491 25.9245C23.1491 26.7237 23.4661 27.4905 24.0309 28.056L25.4461 26.6427C25.2561 26.4525 25.1491 26.1941 25.1491 25.9245H23.1491ZM24.0309 28.056C24.5958 28.6216 25.3621 28.9396 26.1615 28.9396V26.9396C25.8934 26.9396 25.636 26.833 25.4461 26.6427L24.0309 28.056ZM26.1615 28.9396C26.9609 28.9396 27.7272 28.6216 28.2921 28.056L26.8769 26.6427C26.6869 26.833 26.4296 26.9396 26.1615 26.9396V28.9396ZM28.2921 28.056C28.8569 27.4905 29.1739 26.7237 29.1739 25.9245H27.1739C27.1739 26.1941 27.0669 26.4525 26.8769 26.6427L28.2921 28.056ZM33.2724 -0.850236C32.8828 -0.948901 32.4795 -1 32.071 -1V1C32.3125 1 32.5509 1.0302 32.7814 1.08856L33.2724 -0.850236ZM32.071 -1H30.8432V1H32.071V-1ZM29.8432 0V1.98312H31.8432V0H29.8432ZM32.071 0.983119H30.8432V2.98312H32.071V0.983119ZM32.7832 1.07049C32.5521 1.01292 32.313 0.983119 32.071 0.983119V2.98312C32.1488 2.98312 32.2255 2.99269 32.2999 3.0112L32.7832 1.07049ZM32.7944 1.07329C32.7906 1.07234 32.7869 1.07141 32.7833 1.0705L32.2998 3.01119C32.3011 3.01151 32.3023 3.01181 32.3035 3.01211L32.7944 1.07329ZM33.5185 2.28757L34.0038 0.365915L32.0647 -0.123832L31.5794 1.79783L33.5185 2.28757ZM33.2817 -0.847867C33.2785 -0.848675 33.2754 -0.849467 33.2724 -0.85024L32.7814 1.08857C32.7833 1.08904 32.7851 1.0895 32.7869 1.08995L33.2817 -0.847867ZM33.2362 0.0480982L32.2136 1.74143L33.9255 2.77539L34.9482 1.08205L33.2362 0.0480982ZM33.5997 1.4103C33.5936 1.40664 33.5875 1.40299 33.5815 1.39937L32.5576 3.11745C32.5596 3.11863 32.5616 3.11982 32.5636 3.12101L33.5997 1.4103ZM34.1535 1.84317C33.9854 1.67613 33.7992 1.53115 33.5996 1.41027L32.5636 3.12104C32.6284 3.16025 32.689 3.20743 32.7441 3.26214L34.1535 1.84317ZM34.1705 1.86019C34.165 1.8546 34.1593 1.84891 34.1535 1.84313L32.7441 3.26217C32.7459 3.2639 32.7477 3.26575 32.7497 3.26773L34.1705 1.86019ZM34.6056 2.41897C34.4842 2.2177 34.3386 2.02985 34.1705 1.8602L32.7497 3.26773C32.8048 3.32335 32.8527 3.38508 32.8927 3.45154L34.6056 2.41897ZM34.6164 2.43705C34.6128 2.43106 34.6092 2.42498 34.6055 2.41883L32.8928 3.45168C32.894 3.45359 32.8952 3.45559 32.8964 3.4577L34.6164 2.43705ZM34.2676 3.80684L35.9602 2.80014L34.9378 1.0812L33.2452 2.08791L34.2676 3.80684ZM36.3109 1.4336C36.3079 1.42847 36.3049 1.42335 36.3018 1.41823L34.5818 2.43879C34.5836 2.44177 34.5853 2.44475 34.5871 2.44774L36.3109 1.4336ZM36.3019 1.41833C36.0996 1.07737 35.8558 0.759264 35.5737 0.472173L34.1472 1.87395C34.3153 2.04506 34.4608 2.23486 34.5817 2.43869L36.3019 1.41833ZM35.5737 0.472141C35.5692 0.467545 35.5645 0.462822 35.5597 0.457997L34.1387 1.86537C34.1414 1.86812 34.1442 1.87098 34.1472 1.87398L35.5737 0.472141ZM35.5597 0.457919C35.2767 0.172305 34.9626 -0.0752117 34.6253 -0.281136L33.5832 1.42591C33.7834 1.54812 33.9702 1.69523 34.1388 1.86545L35.5597 0.457919ZM34.6252 -0.281188C34.6202 -0.284249 34.6152 -0.287301 34.6102 -0.290344L33.5743 1.4205C33.5773 1.42231 33.5803 1.42413 33.5833 1.42596L34.6252 -0.281188ZM35.6414 2.03326L33.7338 2.50728L34.2161 4.44825L36.1237 3.97423L35.6414 2.03326ZM34.9475 3.24472C34.9465 3.24075 34.9456 3.237 34.9447 3.23355L33.0053 3.72198C33.0056 3.72334 33.0059 3.72441 33.0061 3.72526L34.9475 3.24472ZM35.0355 3.96624C35.0355 3.72097 35.0055 3.47867 34.9474 3.24444L33.0061 3.72554C33.0255 3.80352 33.0355 3.88428 33.0355 3.96624H35.0355ZM35.0355 5.20569V3.96624H33.0355V5.20569H35.0355ZM34.0355 6.20569H36V4.20569H34.0355V6.20569ZM37 5.20569V3.96624H35V5.20569H37ZM37 3.96624C37 3.56051 36.9507 3.15977 36.8554 2.77224L34.9133 3.24972C34.9704 3.48211 35 3.72256 35 3.96624H37ZM36.8554 2.77228C36.8546 2.76896 36.8538 2.76578 36.8533 2.76346L34.9119 3.24404C34.9125 3.24653 34.9129 3.24818 34.9133 3.24967L36.8554 2.77228ZM36 5.69303H34.0355V7.69303H36V5.69303ZM35.0355 9.17192V6.69303H33.0355V9.17192H35.0355ZM34.0355 10.1719H36V8.17192H34.0355V10.1719ZM37 9.17192V6.69303H35V9.17192H37ZM36 9.65926H34.0355V11.6593H36V9.65926ZM35.0355 13.1382V10.6593H33.0355V13.1382H35.0355ZM34.0355 14.1382H36V12.1382H34.0355V14.1382ZM37 13.1382V10.6593H35V13.1382H37ZM36 13.6255H34.0355V15.6255H36V13.6255ZM35.0355 17.1044V14.6255H33.0355V17.1044H35.0355ZM34.0355 18.1044H36V16.1044H34.0355V18.1044ZM37 17.1044V14.6255H35V17.1044H37ZM36 17.5917H34.0355V19.5917H36V17.5917ZM35.0355 21.0706V18.5917H33.0355V21.0706H35.0355ZM34.0355 22.0706H36V20.0706H34.0355V22.0706ZM37 21.0706V18.5917H35V21.0706H37ZM36 21.558H34.0355V23.558H36V21.558ZM35.0355 25.0369V22.558H33.0355V25.0369H35.0355ZM34.0355 26.0369H36V24.0369H34.0355V26.0369ZM37 25.0369V22.558H35V25.0369H37ZM36 25.5242H34.0355V27.5242H36V25.5242ZM35.0355 27.7637V26.5242H33.0355V27.7637H35.0355ZM34.9474 28.4855C35.0055 28.2512 35.0355 28.0089 35.0355 27.7637H33.0355C33.0355 27.8456 33.0255 27.9264 33.0061 28.0044L34.9474 28.4855ZM34.9447 28.4964C34.9456 28.4929 34.9465 28.4891 34.9475 28.4851L33.0061 28.0047C33.0059 28.0055 33.0056 28.0066 33.0053 28.0079L34.9447 28.4964ZM33.7338 29.2226L35.6414 29.6966L36.1237 27.7557L34.2161 27.2816L33.7338 29.2226ZM36.8532 28.9665C36.8539 28.9639 36.8546 28.9609 36.8554 28.9576L34.9133 28.4802C34.9129 28.4818 34.9124 28.4836 34.9119 28.4858L36.8532 28.9665ZM36.8554 28.9577C36.9507 28.5701 37 28.1694 37 27.7637H35C35 28.0073 34.9704 28.2478 34.9133 28.4802L36.8554 28.9577ZM37 27.7637V26.5242H35V27.7637H37ZM35.9602 28.9298L34.2676 27.9231L33.2452 29.642L34.9378 30.6487L35.9602 28.9298ZM34.6057 29.3108C34.609 29.3053 34.6126 29.2992 34.6165 29.2926L32.8963 28.2724C32.8954 28.274 32.8942 28.276 32.8926 28.2785L34.6057 29.3108ZM34.1705 29.8697C34.3386 29.7 34.4842 29.5122 34.6056 29.3109L32.8927 28.2784C32.8527 28.3448 32.8048 28.4066 32.7497 28.4622L34.1705 29.8697ZM34.1535 29.8868C34.1593 29.881 34.165 29.8753 34.1704 29.8698L32.7498 28.4621C32.7477 28.4641 32.7459 28.466 32.7442 28.4677L34.1535 29.8868ZM33.5996 30.3196C33.7992 30.1987 33.9854 30.0538 34.1535 29.8867L32.7441 28.4678C32.689 28.5225 32.6284 28.5697 32.5636 28.6089L33.5996 30.3196ZM33.5813 30.3306C33.5875 30.327 33.5936 30.3233 33.5997 30.3196L32.5635 28.6089C32.5616 28.6101 32.5597 28.6112 32.5578 28.6124L33.5813 30.3306ZM32.2136 29.9885L33.2362 31.6818L34.9482 30.6478L33.9255 28.9545L32.2136 29.9885ZM34.6102 32.0202C34.6152 32.0172 34.6203 32.0141 34.6254 32.011L33.5831 30.3041C33.5803 30.3058 33.5773 30.3076 33.5742 30.3094L34.6102 32.0202ZM34.6253 32.011C34.9626 31.8051 35.2767 31.5576 35.5597 31.272L34.1388 29.8645C33.9702 30.0347 33.7834 30.1818 33.5832 30.304L34.6253 32.011ZM35.5597 31.2719C35.5644 31.2671 35.5691 31.2624 35.5737 31.2578L34.1472 29.8559C34.1443 29.8588 34.1415 29.8617 34.1387 29.8645L35.5597 31.2719ZM35.5737 31.2577C35.8558 30.9706 36.0996 30.6525 36.3019 30.3116L34.5817 29.2912C34.4608 29.495 34.3153 29.6848 34.1472 29.856L35.5737 31.2577ZM36.3019 30.3116C36.3048 30.3066 36.3078 30.3015 36.3109 30.2963L34.5871 29.2822C34.5854 29.2851 34.5836 29.2881 34.5818 29.2912L36.3019 30.3116ZM16.3549 14.1382H18.3194V12.1382H16.3549V14.1382ZM17.3194 10.6593V13.1382H19.3194V10.6593H17.3194ZM18.3194 9.65926H16.3549V11.6593H18.3194V9.65926ZM15.3549 10.6593V13.1382H17.3549V10.6593H15.3549ZM16.3549 10.1719H18.3194V8.17192H16.3549V10.1719ZM17.3194 6.69303V9.17192H19.3194V6.69303H17.3194ZM18.3194 5.69303H16.3549V7.69303H18.3194V5.69303ZM15.3549 6.69303V9.17192H17.3549V6.69303H15.3549ZM16.3549 6.20569H18.3194V4.20569H16.3549V6.20569ZM17.3194 3.96624V5.20569H19.3194V3.96624H17.3194ZM17.4075 3.24444C17.3495 3.47867 17.3194 3.72097 17.3194 3.96624H19.3194C19.3194 3.88428 19.3295 3.80352 19.3488 3.72554L17.4075 3.24444ZM17.4102 3.23362C17.4093 3.23721 17.4084 3.24083 17.4075 3.24447L19.3488 3.72551C19.3491 3.72434 19.3494 3.72314 19.3497 3.72191L17.4102 3.23362ZM18.6211 2.50728L16.7135 2.03326L16.2312 3.97423L18.1388 4.44825L18.6211 2.50728ZM15.5017 2.76318C15.501 2.766 15.5003 2.76905 15.4995 2.77224L17.4417 3.24971C17.4421 3.24809 17.4425 3.24631 17.443 3.24431L15.5017 2.76318ZM15.4995 2.77224C15.4042 3.15977 15.3549 3.56051 15.3549 3.96624H17.3549C17.3549 3.72256 17.3845 3.48211 17.4417 3.24972L15.4995 2.77224ZM15.3549 3.96624V5.20569H17.3549V3.96624H15.3549ZM16.3947 2.80014L18.0873 3.80684L19.1097 2.0879L17.4171 1.0812L16.3947 2.80014ZM17.7493 2.41898C17.7456 2.42523 17.7419 2.43132 17.7385 2.43721L19.4586 3.45754C19.4599 3.45534 19.4611 3.45334 19.4622 3.45153L17.7493 2.41898ZM18.1844 1.8602C18.0163 2.02985 17.8707 2.2177 17.7494 2.41897L19.4622 3.45154C19.5023 3.38508 19.5502 3.32335 19.6053 3.26773L18.1844 1.8602ZM18.2014 1.84316C18.1958 1.84875 18.1901 1.85443 18.1844 1.86019L19.6053 3.26773C19.607 3.26592 19.6089 3.26406 19.6108 3.26215L18.2014 1.84316ZM18.7553 1.41027C18.5557 1.53116 18.3696 1.67614 18.2014 1.84317L19.6108 3.26214C19.6659 3.20742 19.7266 3.16024 19.7913 3.12104L18.7553 1.41027ZM18.7735 1.39933C18.7676 1.40289 18.7615 1.40654 18.7553 1.41027L19.7913 3.12105C19.7932 3.11992 19.7951 3.11873 19.7972 3.11749L18.7735 1.39933ZM20.1414 1.74143L19.1187 0.0480973L17.4067 1.08206L18.4294 2.77539L20.1414 1.74143ZM17.7447 -0.290316C17.7396 -0.287247 17.7346 -0.284187 17.7296 -0.28114L18.7717 1.42591C18.7747 1.42407 18.7777 1.42226 18.7807 1.42047L17.7447 -0.290316ZM17.7296 -0.281137C17.3923 -0.0752115 17.0782 0.172306 16.7953 0.457919L18.2161 1.86545C18.3848 1.69523 18.5715 1.54812 18.7717 1.42591L17.7296 -0.281137ZM16.7953 0.457928C16.7906 0.462672 16.7859 0.467421 16.7812 0.472175L18.2078 1.87395C18.2106 1.8711 18.2133 1.86827 18.2161 1.86544L16.7953 0.457928ZM16.7812 0.472173C16.4991 0.759263 16.2553 1.07737 16.053 1.41833L17.7732 2.43869C17.8941 2.23486 18.0396 2.04506 18.2078 1.87395L16.7812 0.472173ZM16.053 1.41834C16.0501 1.42332 16.0471 1.4284 16.0441 1.43355L17.7678 2.44779C17.7695 2.44483 17.7713 2.44179 17.7732 2.43868L16.053 1.41834ZM18.3511 0.365916L18.8364 2.28757L20.7755 1.79783L20.2902 -0.123832L18.3511 0.365916ZM19.5717 1.0705C19.568 1.07141 19.5643 1.07234 19.5605 1.0733L20.0515 3.0121C20.0526 3.01181 20.0538 3.01151 20.0551 3.01119L19.5717 1.0705ZM20.2839 0.983119C20.0419 0.983119 19.8028 1.01292 19.5717 1.07049L20.0551 3.0112C20.1294 2.99269 20.2062 2.98312 20.2839 2.98312V0.983119ZM21.5118 0.983119H20.2839V2.98312H21.5118V0.983119ZM22.5118 1.98312V0H20.5118V1.98312H22.5118ZM21.5118 -1H20.2839V1H21.5118V-1ZM20.2839 -1C19.8755 -1 19.4722 -0.948901 19.0825 -0.850236L19.5735 1.08856C19.804 1.0302 20.0424 1 20.2839 1V-1ZM19.0826 -0.850238C19.0795 -0.849457 19.0764 -0.84867 19.0733 -0.847876L19.568 1.08996C19.5698 1.0895 19.5717 1.08903 19.5735 1.08857L19.0826 -0.850238ZM21.9851 0V1.98312H23.9851V0H21.9851ZM25.4408 0.983119H22.9851V2.98312H25.4408V0.983119ZM26.4408 1.98312V0H24.4408V1.98312H26.4408ZM25.4408 -1H22.9851V1H25.4408V-1ZM25.9142 0V1.98312H27.9142V0H25.9142ZM29.3698 0.983119H26.9142V2.98312H29.3698V0.983119ZM30.3698 1.98312V0H28.3698V1.98312H30.3698ZM29.3698 -1H26.9142V1H29.3698V-1ZM26.1775 28.7637C26.9668 28.7637 27.7218 28.4471 28.277 27.8866L26.8561 26.4791C26.6745 26.6624 26.4302 26.7637 26.1775 26.7637V28.7637ZM28.277 27.8866C28.8319 27.3264 29.142 26.5687 29.142 25.7805H27.142C27.142 26.0443 27.0381 26.2954 26.8561 26.4791L28.277 27.8866ZM29.142 25.7805C29.142 24.9924 28.8319 24.2347 28.277 23.6745L26.8561 25.082C27.0381 25.2657 27.142 25.5168 27.142 25.7805H29.142ZM28.277 23.6745C27.7218 23.114 26.9668 22.7974 26.1775 22.7974V24.7974C26.4302 24.7974 26.6745 24.8987 26.8561 25.082L28.277 23.6745ZM26.1775 22.7974C25.3882 22.7974 24.6331 23.114 24.0779 23.6745L25.4988 25.082C25.6804 24.8987 25.9247 24.7974 26.1775 24.7974V22.7974ZM24.0779 23.6745C23.523 24.2347 23.213 24.9924 23.213 25.7805H25.213C25.213 25.5168 25.3168 25.2657 25.4988 25.082L24.0779 23.6745ZM23.213 25.7805C23.213 26.5687 23.523 27.3264 24.0779 27.8866L25.4988 26.4791C25.3168 26.2954 25.213 26.0443 25.213 25.7805H23.213ZM24.0779 27.8866C24.6331 28.4471 25.3882 28.7637 26.1775 28.7637V26.7637C25.9247 26.7637 25.6804 26.6624 25.4988 26.4791L24.0779 27.8866ZM8.85381 9.23545H3.41239V11.2355H8.85381V9.23545ZM3.412 9.23545C3.14891 9.23555 2.8939 9.31335 2.67706 9.45605L3.77656 11.1267C3.67066 11.1964 3.54439 11.2354 3.41278 11.2355L3.412 9.23545ZM2.67706 9.45605C2.46061 9.59851 2.29258 9.79858 2.1882 10.0292L4.01021 10.854C3.96158 10.9614 3.88208 11.0573 3.77656 11.1267L2.67706 9.45605ZM2.1882 10.0292C2.08392 10.2595 2.04601 10.5137 2.07707 10.7628L4.06171 10.5154C4.07596 10.6297 4.05872 10.7468 4.01021 10.854L2.1882 10.0292ZM2.07707 10.7628C2.10815 11.0121 2.20757 11.2506 2.36778 11.4495L3.92558 10.1953C4.00165 10.2897 4.04745 10.401 4.06171 10.5154L2.07707 10.7628ZM2.36783 11.4496L5.08854 14.8282L6.64625 13.5737L3.92554 10.1952L2.36783 11.4496ZM5.08886 14.8286C5.21267 14.9821 5.36975 15.1083 5.55053 15.1959L6.42228 13.3959C6.51123 13.4389 6.58705 13.5003 6.64593 13.5733L5.08886 14.8286ZM5.55053 15.1959C5.73144 15.2835 5.93044 15.3296 6.1331 15.3296L6.1331 13.3296C6.23436 13.3296 6.33321 13.3527 6.42228 13.3959L5.55053 15.1959ZM6.1331 15.3296C6.33576 15.3296 6.53476 15.2835 6.71566 15.1959L5.84391 13.3959C5.93299 13.3527 6.03183 13.3296 6.1331 13.3296L6.1331 15.3296ZM6.71566 15.1959C6.89644 15.1083 7.05352 14.9821 7.17734 14.8286L5.62027 13.5733C5.67915 13.5003 5.75497 13.4389 5.84391 13.3959L6.71566 15.1959ZM7.17766 14.8282L9.89837 11.4496L8.34066 10.1952L5.61995 13.5737L7.17766 14.8282ZM9.89841 11.4495C10.0586 11.2506 10.158 11.0121 10.1891 10.7628L8.20449 10.5154C8.21875 10.401 8.26455 10.2897 8.34061 10.1953L9.89841 11.4495ZM10.1891 10.7628C10.2202 10.5137 10.1823 10.2595 10.078 10.0292L8.25599 10.854C8.20747 10.7468 8.19024 10.6297 8.20449 10.5154L10.1891 10.7628ZM10.078 10.0292C9.97361 9.79858 9.80559 9.59851 9.58913 9.45605L8.48963 11.1267C8.38411 11.0573 8.30462 10.9614 8.25599 10.854L10.078 10.0292ZM9.58913 9.45605C9.37229 9.31335 9.11728 9.23555 8.85419 9.23545L8.85342 11.2355C8.72181 11.2354 8.59554 11.1964 8.48963 11.1267L9.58913 9.45605ZM6.21571 10.5814C6.52534 8.4577 7.5088 6.49017 9.02059 4.96933L7.60216 3.55934C5.78791 5.38445 4.60807 7.74521 4.23663 10.2929L6.21571 10.5814ZM9.02059 4.96933C10.5324 3.44851 12.4923 2.45499 14.6109 2.13524L14.3124 0.15764C11.769 0.541513 9.41643 1.73421 7.60216 3.55934L9.02059 4.96933ZM13.4728 1.29529L13.686 2.71218L15.6638 2.41448L15.4505 0.997593L13.4728 1.29529ZM14.5257 1.57453C12.2858 1.91259 10.2141 2.96294 8.61636 4.5702L10.0348 5.98019C11.33 4.67723 13.0091 3.82607 14.8241 3.55213L14.5257 1.57453ZM8.61636 4.5702C7.01868 6.17745 5.9797 8.25638 5.65261 10.4999L7.63169 10.7884C7.89697 8.96887 8.73957 7.28316 10.0348 5.98019L8.61636 4.5702ZM6.7868 9.65469L5.37082 9.44769L5.08152 11.4267L6.4975 11.6337L6.7868 9.65469Z" fill="black" mask="url(#path-1-inside-1_683_22769)"/>
</svg>
