<svg width="15" height="16" viewBox="0 0 15 16" fill="none" xmlns="http://www.w3.org/2000/svg">
<path fill-rule="evenodd" clip-rule="evenodd" d="M9.22065 1.3074C9.29105 1.08419 9.52907 0.960319 9.75228 1.03072C12.7943 1.99023 15 4.84263 15 8.21193C15 11.2706 13.182 13.9038 10.5701 15.0804C10.3567 15.1766 10.1058 15.0815 10.0097 14.8681C9.91356 14.6547 10.0086 14.4038 10.222 14.3077C12.5396 13.2637 14.1524 10.9268 14.1524 8.21193C14.1524 5.22118 12.1949 2.6899 9.49732 1.83902C9.27412 1.76862 9.15025 1.5306 9.22065 1.3074Z" fill="#1D9E3B"/>
<path fill-rule="evenodd" clip-rule="evenodd" d="M5.82943 1.29515C5.8982 1.51887 5.77258 1.75597 5.54887 1.82474C2.82742 2.66125 0.847556 5.2053 0.847556 8.21198C0.847556 10.1348 1.65701 11.8671 2.95172 13.0853C3.12218 13.2457 3.13035 13.5139 2.96997 13.6843C2.80958 13.8548 2.54139 13.863 2.37093 13.7026C0.912784 12.3306 0 10.3777 0 8.21198C0 4.82469 2.23079 1.95795 5.29985 1.01459C5.52356 0.945823 5.76067 1.07144 5.82943 1.29515Z" fill="#1D9E3B"/>
<path fill-rule="evenodd" clip-rule="evenodd" d="M7.12161 0.692824C7.2443 0.687566 7.37099 0.68396 7.49912 0.68396C7.60698 0.68396 7.71615 0.685722 7.8271 0.691269C8.06085 0.702957 8.24087 0.901927 8.22919 1.13568C8.2175 1.36944 8.01853 1.54946 7.78477 1.53777C7.6923 1.53314 7.59806 1.53152 7.49912 1.53152C7.38655 1.53152 7.27253 1.53469 7.1579 1.5396C6.92407 1.54962 6.72639 1.36819 6.71637 1.13436C6.70635 0.900527 6.88778 0.702846 7.12161 0.692824Z" fill="#1D9E3B"/>
<path fill-rule="evenodd" clip-rule="evenodd" d="M5.85437 4.75904C5.45375 5.16154 5.17177 5.8076 5.17177 6.77964C5.17177 7.75591 5.45744 8.62219 5.8979 9.23377C6.33883 9.84601 6.91062 10.1766 7.49916 10.1766C8.0877 10.1766 8.65949 9.84601 9.10042 9.23377C9.54088 8.62219 9.82655 7.75591 9.82655 6.77964C9.82655 5.8076 9.54456 5.16154 9.14394 4.75904C8.74189 4.35511 8.17136 4.14713 7.49916 4.14713C6.82696 4.14713 6.25642 4.35511 5.85437 4.75904ZM5.25366 4.16113C5.84749 3.56453 6.65253 3.29957 7.49916 3.29957C8.34578 3.29957 9.15083 3.56453 9.74465 4.16113C10.3399 4.75918 10.6741 5.64126 10.6741 6.77964C10.6741 7.91378 10.3436 8.95789 9.78818 9.72909C9.23323 10.4996 8.42944 11.0242 7.49916 11.0242C6.56888 11.0242 5.76509 10.4996 5.21014 9.72909C4.65472 8.95789 4.32421 7.91378 4.32421 6.77964C4.32421 5.64126 4.6584 4.75918 5.25366 4.16113Z" fill="#1D9E3B"/>
<path fill-rule="evenodd" clip-rule="evenodd" d="M8.49131 9.87147C8.63082 9.68356 8.89626 9.64432 9.08418 9.78384C9.3601 9.9887 9.70789 10.1474 10.1093 10.3118C10.1815 10.3414 10.2558 10.3713 10.3316 10.4018C10.6596 10.5337 11.0143 10.6763 11.3331 10.8482C11.7324 11.0635 12.1218 11.3472 12.3901 11.7703C12.6632 12.2009 12.7839 12.7328 12.7217 13.3931C12.6997 13.6261 12.493 13.7972 12.26 13.7752C12.027 13.7532 11.8559 13.5465 11.8778 13.3135C11.9258 12.805 11.8293 12.4686 11.6743 12.2242C11.5146 11.9723 11.265 11.7744 10.9309 11.5943C10.658 11.4471 10.3593 11.3268 10.0349 11.1962C9.95422 11.1636 9.87192 11.1305 9.78803 11.0961C9.38378 10.9305 8.948 10.7384 8.57894 10.4643C8.39102 10.3248 8.35179 10.0594 8.49131 9.87147Z" fill="#1D9E3B"/>
<path fill-rule="evenodd" clip-rule="evenodd" d="M6.50857 9.86949C6.64825 10.0573 6.60924 10.3228 6.42144 10.4624C6.05231 10.737 5.61647 10.9294 5.21213 11.0951C5.12752 11.1298 5.04453 11.1632 4.96317 11.196C4.63947 11.3264 4.34147 11.4465 4.06909 11.5933C3.73498 11.7733 3.48542 11.9711 3.32571 12.2228C3.17078 12.467 3.07431 12.8033 3.12224 13.3118C3.14421 13.5448 2.97312 13.7515 2.74011 13.7735C2.5071 13.7955 2.3004 13.6244 2.27843 13.3914C2.21618 12.7311 2.33689 12.1993 2.61004 11.7688C2.8784 11.3458 3.26778 11.0623 3.66703 10.8471C3.98531 10.6756 4.33931 10.5332 4.66679 10.4015C4.74314 10.3708 4.81805 10.3407 4.89073 10.3109C5.29204 10.1464 5.63977 9.98754 5.91563 9.78236C6.10343 9.64268 6.3689 9.68169 6.50857 9.86949Z" fill="#1D9E3B"/>
<path d="M12.75 12.875C11.625 14.375 9.57996 15.2217 7.59084 15.2217C5.60171 15.2217 3.75 14.75 2.25 12.875" stroke="#1D9E3B" stroke-width="0.9375" stroke-linecap="round"/>
<path d="M1.875 3.875C3.375 2 5.42004 1.09923 7.40916 1.09923C9.39829 1.09923 11.625 1.87952 13.125 3.875" stroke="#1D9E3B" stroke-width="0.825" stroke-linecap="round"/>
</svg>
