<svg width="15" height="16" viewBox="0 0 15 16" fill="none" xmlns="http://www.w3.org/2000/svg">
<path fill-rule="evenodd" clip-rule="evenodd" d="M9.22065 1.49136C9.29105 1.26815 9.52907 1.14428 9.75228 1.21468C12.7943 2.17419 15 5.02659 15 8.39589C15 11.4546 13.182 14.0878 10.5701 15.2644C10.3567 15.3605 10.1058 15.2655 10.0097 15.0521C9.91356 14.8387 10.0086 14.5877 10.222 14.4916C12.5396 13.4476 14.1524 11.1107 14.1524 8.39589C14.1524 5.40514 12.1949 2.87386 9.49732 2.02298C9.27412 1.95258 9.15025 1.71456 9.22065 1.49136Z" fill="#B7B7B7"/>
<path fill-rule="evenodd" clip-rule="evenodd" d="M5.82943 1.47911C5.8982 1.70283 5.77258 1.93993 5.54887 2.0087C2.82742 2.84521 0.847556 5.38926 0.847556 8.39594C0.847556 10.3188 1.65701 12.0511 2.95172 13.2693C3.12218 13.4296 3.13035 13.6978 2.96997 13.8683C2.80958 14.0387 2.54139 14.0469 2.37093 13.8865C0.912784 12.5146 0 10.5617 0 8.39594C0 5.00865 2.23079 2.14191 5.29985 1.19855C5.52356 1.12978 5.76067 1.2554 5.82943 1.47911Z" fill="#B7B7B7"/>
<path fill-rule="evenodd" clip-rule="evenodd" d="M7.12161 0.876784C7.2443 0.871526 7.37099 0.86792 7.49912 0.86792C7.60698 0.86792 7.71615 0.869682 7.8271 0.875229C8.06085 0.886917 8.24087 1.08589 8.22919 1.31964C8.2175 1.5534 8.01853 1.73342 7.78477 1.72173C7.6923 1.7171 7.59806 1.71548 7.49912 1.71548C7.38655 1.71548 7.27253 1.71865 7.1579 1.72356C6.92407 1.73358 6.72639 1.55215 6.71637 1.31832C6.70635 1.08449 6.88778 0.886806 7.12161 0.876784Z" fill="#B7B7B7"/>
<path fill-rule="evenodd" clip-rule="evenodd" d="M5.85437 4.943C5.45375 5.3455 5.17177 5.99156 5.17177 6.9636C5.17177 7.93987 5.45744 8.80615 5.8979 9.41773C6.33883 10.03 6.91062 10.3606 7.49916 10.3606C8.0877 10.3606 8.65949 10.03 9.10042 9.41773C9.54088 8.80615 9.82655 7.93987 9.82655 6.9636C9.82655 5.99156 9.54456 5.3455 9.14394 4.943C8.74189 4.53907 8.17136 4.33109 7.49916 4.33109C6.82696 4.33109 6.25642 4.53907 5.85437 4.943ZM5.25366 4.34509C5.84749 3.74849 6.65253 3.48353 7.49916 3.48353C8.34578 3.48353 9.15083 3.74849 9.74465 4.34509C10.3399 4.94314 10.6741 5.82522 10.6741 6.9636C10.6741 8.09774 10.3436 9.14185 9.78818 9.91305C9.23323 10.6836 8.42944 11.2082 7.49916 11.2082C6.56888 11.2082 5.76509 10.6836 5.21014 9.91305C4.65472 9.14185 4.32421 8.09774 4.32421 6.9636C4.32421 5.82522 4.6584 4.94314 5.25366 4.34509Z" fill="#B7B7B7"/>
<path fill-rule="evenodd" clip-rule="evenodd" d="M8.49131 10.0554C8.63082 9.86752 8.89626 9.82828 9.08418 9.9678C9.3601 10.1727 9.70789 10.3314 10.1093 10.4958C10.1815 10.5253 10.2558 10.5553 10.3316 10.5857C10.6596 10.7176 11.0143 10.8603 11.3331 11.0322C11.7324 11.2475 12.1218 11.5311 12.3901 11.9542C12.6632 12.3849 12.7839 12.9167 12.7217 13.577C12.6997 13.81 12.493 13.9811 12.26 13.9591C12.027 13.9372 11.8559 13.7305 11.8778 13.4975C11.9258 12.989 11.8293 12.6525 11.6743 12.4082C11.5146 12.1563 11.265 11.9583 10.9309 11.7782C10.658 11.6311 10.3593 11.5108 10.0349 11.3801C9.95422 11.3476 9.87192 11.3145 9.78803 11.2801C9.38378 11.1145 8.948 10.9223 8.57894 10.6483C8.39102 10.5088 8.35179 10.2433 8.49131 10.0554Z" fill="#B7B7B7"/>
<path fill-rule="evenodd" clip-rule="evenodd" d="M6.50857 10.0535C6.64825 10.2413 6.60924 10.5067 6.42144 10.6464C6.05231 10.9209 5.61647 11.1134 5.21213 11.2791C5.12752 11.3138 5.04453 11.3472 4.96317 11.38C4.63947 11.5104 4.34147 11.6304 4.06909 11.7772C3.73498 11.9573 3.48542 12.1551 3.32571 12.4068C3.17078 12.651 3.07431 12.9873 3.12224 13.4958C3.14421 13.7288 2.97312 13.9355 2.74011 13.9575C2.5071 13.9794 2.3004 13.8083 2.27843 13.5753C2.21618 12.915 2.33689 12.3832 2.61004 11.9527C2.8784 11.5297 3.26778 11.2462 3.66703 11.0311C3.98531 10.8596 4.33931 10.7172 4.66679 10.5855C4.74314 10.5548 4.81805 10.5246 4.89073 10.4948C5.29204 10.3304 5.63977 10.1715 5.91563 9.96632C6.10343 9.82664 6.3689 9.86565 6.50857 10.0535Z" fill="#B7B7B7"/>
<path fill-rule="evenodd" clip-rule="evenodd" d="M10.0145 1.44265C10.2061 1.52151 10.296 1.74409 10.2154 1.93981L4.84998 14.9701C4.76939 15.1658 4.54881 15.2605 4.35731 15.1817C4.1658 15.1028 4.07588 14.8802 4.15647 14.6845L9.52187 1.65425C9.60246 1.45853 9.82304 1.3638 10.0145 1.44265Z" fill="#B7B7B7"/>
</svg>
