<svg width="17" height="16" viewBox="0 0 17 16" fill="none" xmlns="http://www.w3.org/2000/svg">
<path fill-rule="evenodd" clip-rule="evenodd" d="M6.84198 4.32507C6.44136 4.72757 6.15938 5.37363 6.15938 6.34567C6.15938 7.32194 6.44504 8.18822 6.8855 8.7998C7.32644 9.41204 7.89822 9.74267 8.48677 9.74267C9.07531 9.74267 9.6471 9.41204 10.088 8.7998C10.5285 8.18822 10.8142 7.32194 10.8142 6.34567C10.8142 5.37363 10.5322 4.72757 10.1316 4.32507C9.7295 3.92114 9.15896 3.71316 8.48677 3.71316C7.81457 3.71316 7.24403 3.92114 6.84198 4.32507ZM6.24127 3.72716C6.8351 3.13055 7.64014 2.8656 8.48677 2.8656C9.33339 2.8656 10.1384 3.13055 10.7323 3.72716C11.3275 4.32521 11.6617 5.20729 11.6617 6.34567C11.6617 7.47981 11.3312 8.52392 10.7758 9.29512C10.2208 10.0657 9.41704 10.5902 8.48677 10.5902C7.55649 10.5902 6.75269 10.0657 6.19775 9.29512C5.64233 8.52392 5.31182 7.47981 5.31182 6.34567C5.31182 5.20729 5.64601 4.32521 6.24127 3.72716Z" fill="#FF860D"/>
<path fill-rule="evenodd" clip-rule="evenodd" d="M9.47891 9.4375C9.61843 9.24958 9.88387 9.21035 10.0718 9.34987C10.3477 9.55473 10.6955 9.71343 11.0969 9.87785C11.1691 9.90741 11.2434 9.93732 11.3192 9.96779C11.6472 10.0997 12.0019 10.2423 12.3208 10.4143C12.72 10.6295 13.1094 10.9132 13.3777 11.3363C13.6508 11.7669 13.7715 12.2988 13.7093 12.9591C13.6873 13.1921 13.4806 13.3632 13.2476 13.3412C13.0146 13.3192 12.8435 13.1125 12.8655 12.8795C12.9134 12.371 12.8169 12.0346 12.662 11.7902C12.5022 11.5384 12.2526 11.3404 11.9185 11.1603C11.6456 11.0132 11.347 10.8929 11.0225 10.7622C10.9418 10.7297 10.8595 10.6965 10.7756 10.6622C10.3714 10.4966 9.93561 10.3044 9.56655 10.0304C9.37863 9.89085 9.3394 9.62542 9.47891 9.4375Z" fill="#FF860D"/>
<path fill-rule="evenodd" clip-rule="evenodd" d="M7.49618 9.43552C7.63586 9.62332 7.59685 9.88879 7.40905 10.0285C7.03992 10.303 6.60408 10.4954 6.19974 10.6612C6.11513 10.6958 6.03214 10.7293 5.95078 10.762C5.62708 10.8925 5.32908 11.0125 5.05669 11.1593C4.72259 11.3393 4.47302 11.5371 4.31331 11.7888C4.15839 12.033 4.06191 12.3693 4.10985 12.8778C4.13182 13.1109 3.96073 13.3176 3.72772 13.3395C3.4947 13.3615 3.288 13.1904 3.26604 12.9574C3.20379 12.2971 3.3245 11.7653 3.59765 11.3348C3.86601 10.9118 4.25539 10.6283 4.65463 10.4132C4.97292 10.2416 5.32691 10.0993 5.6544 9.96753C5.73075 9.93682 5.80566 9.90669 5.87834 9.8769C6.27965 9.71244 6.62737 9.55356 6.90324 9.34839C7.09103 9.20871 7.35651 9.24772 7.49618 9.43552Z" fill="#FF860D"/>
<circle cx="8.5" cy="8" r="7.5" stroke="#FF860D" stroke-width="0.9375" stroke-linecap="round" stroke-linejoin="round" stroke-dasharray="0.75 2.25"/>
</svg>
