<?xml version="1.0" encoding="utf-8"?>
<!-- Generator: Adobe Illustrator 28.1.0, SVG Export Plug-In . SVG Version: 6.00 Build 0)  -->
<svg version="1.1" xmlns="http://www.w3.org/2000/svg" xmlns:xlink="http://www.w3.org/1999/xlink" x="0px" y="0px"
	 viewBox="0 0 150 150" style="enable-background:new 0 0 150 150;" xml:space="preserve">
<style type="text/css">
	.st0{fill:none;stroke:#061AB1;stroke-width:5;stroke-linecap:round;stroke-linejoin:round;}
	.st1{fill:none;stroke:#061AB1;stroke-width:3.019;stroke-linecap:round;stroke-linejoin:round;}
	.st2{display:none;}
	.st3{display:inline;}
	.st4{fill:none;stroke:#FFFFFF;stroke-width:5;stroke-linecap:round;stroke-linejoin:round;}
	.st5{display:inline;fill:none;stroke:#FFFFFF;stroke-width:5;stroke-linecap:round;stroke-linejoin:round;}
	.st6{fill:none;stroke:#FFFFFF;stroke-width:3.019;stroke-linecap:round;stroke-linejoin:round;}
</style>
<g id="Livello_1">
	<g>
		<g>
			<polyline class="st0" points="134.68,73.18 134.68,130.5 22.3,130.5 22.3,113.85 			"/>
			<polyline class="st0" points="100.79,130.58 100.79,87.38 126.33,87.38 126.33,130.58 			"/>
			<line class="st0" x1="117.13" y1="108.82" x2="117.13" y2="115.45"/>
			<path class="st0" d="M40.07,73.18h102.99l-0.06-0.1c0.11-1.52,1.2-20.9-13.3-20.95H27.31c-5.67,0.02-8.96,2.99-10.84,6.68
				c-0.63,1.22-0.39,2.02-0.75,3.32"/>
			<g>
				<line class="st0" x1="52.52" y1="52.14" x2="52.52" y2="37.69"/>
				<line class="st0" x1="104.48" y1="52.14" x2="104.48" y2="37.69"/>
			</g>
			<rect x="39.53" y="17.56" class="st0" width="77.93" height="19.32"/>
		</g>
		<line class="st0" x1="9.96" y1="130.58" x2="147.04" y2="130.58"/>
	</g>
	<g>
		<path class="st0" d="M40.43,79.04c0-10.01-8.12-18.13-18.13-18.13S4.17,69.03,4.17,79.04c0,0-0.82,6.29,6.35,16.52
			c3.22,4.61,11.78,18.29,11.78,18.29s8.56-13.68,11.78-18.29c7.17-10.23,6.34-16.52,6.34-16.52L40.43,79.04z"/>
		<circle class="st0" cx="22.3" cy="78.95" r="7.68"/>
	</g>
	<path class="st0" d="M43.95,130.62V90.99c0-1.93,1.3-3.61,2.78-3.61h44.46c1.49,0,2.78,1.68,2.78,3.61v39.64"/>
	<g>
		<g>
			<g id="warehouse_pallet_00000093164555027775006430000014945466643644989350_">
				<g>
					<polyline class="st1" points="87.91,128.85 87.91,111.3 68.96,111.3 68.96,128.85 					"/>
					<polyline class="st1" points="80.89,111.3 80.89,114.82 75.98,114.82 75.98,111.3 					"/>
					<line class="st1" x1="83.7" y1="124.64" x2="80.89" y2="124.64"/>
				</g>
				<g>
					<polyline class="st1" points="72.47,111.3 72.47,93.75 53.52,93.75 53.52,111.3 					"/>
					<polyline class="st1" points="65.45,93.75 65.45,97.27 60.53,97.27 60.53,93.75 					"/>
					<line class="st1" x1="68.26" y1="107.09" x2="65.45" y2="107.09"/>
				</g>
				<g>
					<polyline class="st1" points="68.96,128.85 68.96,111.3 50.01,111.3 50.01,129.73 					"/>
					<polyline class="st1" points="61.94,111.3 61.94,114.82 57.03,114.82 57.03,111.3 					"/>
					<line class="st1" x1="64.75" y1="124.64" x2="61.94" y2="124.64"/>
				</g>
			</g>
		</g>
	</g>
</g>
<g id="Livello_2" class="st2">
	<g class="st3">
		<g>
			<polyline class="st4" points="134.68,73.18 134.68,130.5 22.3,130.5 22.3,113.85 			"/>
			<polyline class="st4" points="100.79,130.58 100.79,87.38 126.33,87.38 126.33,130.58 			"/>
			<line class="st4" x1="117.13" y1="108.82" x2="117.13" y2="115.45"/>
			<path class="st4" d="M40.07,73.18h102.99l-0.06-0.1c0.11-1.52,1.2-20.9-13.3-20.95H27.31c-5.67,0.02-8.96,2.99-10.84,6.68
				c-0.63,1.22-0.39,2.02-0.75,3.32"/>
			<g>
				<line class="st4" x1="52.52" y1="52.14" x2="52.52" y2="37.69"/>
				<line class="st4" x1="104.48" y1="52.14" x2="104.48" y2="37.69"/>
			</g>
			<rect x="39.53" y="17.56" class="st4" width="77.93" height="19.32"/>
		</g>
		<line class="st4" x1="9.96" y1="130.58" x2="147.04" y2="130.58"/>
	</g>
	<g class="st3">
		<path class="st4" d="M40.43,79.04c0-10.01-8.12-18.13-18.13-18.13S4.17,69.03,4.17,79.04c0,0-0.82,6.29,6.35,16.52
			c3.22,4.61,11.78,18.29,11.78,18.29s8.56-13.68,11.78-18.29c7.17-10.23,6.34-16.52,6.34-16.52L40.43,79.04z"/>
		<circle class="st4" cx="22.3" cy="78.95" r="7.68"/>
	</g>
	<path class="st5" d="M43.95,130.62V90.99c0-1.93,1.3-3.61,2.78-3.61h44.46c1.49,0,2.78,1.68,2.78,3.61v39.64"/>
	<g class="st3">
		<g>
			<g id="warehouse_pallet_00000146468102120259487420000013737915718351338120_">
				<g>
					<polyline class="st6" points="87.91,128.85 87.91,111.3 68.96,111.3 68.96,128.85 					"/>
					<polyline class="st6" points="80.89,111.3 80.89,114.82 75.98,114.82 75.98,111.3 					"/>
					<line class="st6" x1="83.7" y1="124.64" x2="80.89" y2="124.64"/>
				</g>
				<g>
					<polyline class="st6" points="72.47,111.3 72.47,93.75 53.52,93.75 53.52,111.3 					"/>
					<polyline class="st6" points="65.45,93.75 65.45,97.27 60.53,97.27 60.53,93.75 					"/>
					<line class="st6" x1="68.26" y1="107.09" x2="65.45" y2="107.09"/>
				</g>
				<g>
					<polyline class="st6" points="68.96,128.85 68.96,111.3 50.01,111.3 50.01,129.73 					"/>
					<polyline class="st6" points="61.94,111.3 61.94,114.82 57.03,114.82 57.03,111.3 					"/>
					<line class="st6" x1="64.75" y1="124.64" x2="61.94" y2="124.64"/>
				</g>
			</g>
		</g>
	</g>
</g>
</svg>
